/* XPM */
static char * litecoinz32_xpm[] = {
"32 32 589 2",
"  	c None",
". 	c #FDDB81",
"+ 	c #FDE18A",
"@ 	c #FDDF86",
"# 	c #FBD776",
"$ 	c #FDE191",
"% 	c #FFEE98",
"& 	c #FDF8B1",
"* 	c #DCC976",
"= 	c #DBC667",
"- 	c #DECA63",
"; 	c #DEC75C",
"> 	c #DDBE53",
", 	c #DFB94C",
"' 	c #FDE06C",
") 	c #FFD65A",
"! 	c #F8D063",
"~ 	c #FDE392",
"{ 	c #FFFBB0",
"] 	c #D7C36C",
"^ 	c #DCC454",
"/ 	c #E2C342",
"( 	c #FFEB5B",
"_ 	c #FFE757",
": 	c #FFE55A",
"< 	c #FFDF4C",
"[ 	c #FFE04D",
"} 	c #FFE048",
"| 	c #E8BA36",
"1 	c #E1B233",
"2 	c #DCA829",
"3 	c #FFD651",
"4 	c #F6CE62",
"5 	c #FFF9AA",
"6 	c #DCC66F",
"7 	c #DABB43",
"8 	c #FFEC5B",
"9 	c #FFE563",
"0 	c #F8DC5C",
"a 	c #FFDB4C",
"b 	c #FFDD52",
"c 	c #EDD46F",
"d 	c #F8D558",
"e 	c #FFD13F",
"f 	c #FCD95B",
"g 	c #F3BF38",
"h 	c #FFC837",
"i 	c #FFCF39",
"j 	c #DEA72A",
"k 	c #E0AC3A",
"l 	c #FFE382",
"m 	c #FCF09F",
"n 	c #D0B148",
"o 	c #FFE24F",
"p 	c #FEDB4B",
"q 	c #FFDA4B",
"r 	c #F7CF43",
"s 	c #F7DF76",
"t 	c #FFD340",
"u 	c #FFD140",
"v 	c #EAC75C",
"w 	c #F3C039",
"x 	c #FFC736",
"y 	c #EDBE46",
"z 	c #FFC734",
"A 	c #FDC233",
"B 	c #F8C441",
"C 	c #F7BE36",
"D 	c #FEC131",
"E 	c #D6A038",
"F 	c #FAE9AC",
"G 	c #F5E793",
"H 	c #DDB63D",
"I 	c #FFDD4A",
"J 	c #F4DB6F",
"K 	c #F8DD73",
"L 	c #FFD13D",
"M 	c #FFCE3C",
"N 	c #F3C744",
"O 	c #FFC934",
"P 	c #FFC42A",
"Q 	c #FFC420",
"R 	c #FFC020",
"S 	c #FEBF27",
"T 	c #FABC2D",
"U 	c #FABE32",
"V 	c #F9BA2D",
"W 	c #F2C349",
"X 	c #EEBE4D",
"Y 	c #F6B62E",
"Z 	c #F6B52F",
"` 	c #DB9D2D",
" .	c #F6E9BB",
"..	c #FCE98C",
"+.	c #DDB137",
"@.	c #FFD542",
"#.	c #FFD03D",
"$.	c #F4D465",
"%.	c #EBCA62",
"&.	c #FFCC35",
"*.	c #FFC429",
"=.	c #F4CF70",
"-.	c #EAD9AD",
";.	c #E2DFD7",
">.	c #DEE4F3",
",.	c #DDE3F3",
"'.	c #E2DFD8",
").	c #EAD7AE",
"!.	c #F1C86E",
"~.	c #F6B122",
"{.	c #EBAB2F",
"].	c #EEAA28",
"^.	c #EFAC2B",
"/.	c #EDAD35",
"(.	c #F4BD4F",
"_.	c #D6952A",
":.	c #FBE69D",
"<.	c #FFEC87",
"[.	c #D2A536",
"}.	c #FFD13E",
"|.	c #FFD047",
"1.	c #FFC737",
"2.	c #FBBD2A",
"3.	c #F5CB63",
"4.	c #DFDEDC",
"5.	c #BDBEC0",
"6.	c #ABABAB",
"7.	c #ADADAD",
"8.	c #A8A8A8",
"9.	c #B4B4B4",
"0.	c #A6A6A6",
"a.	c #A2A3A4",
"b.	c #D5D5D5",
"c.	c #EAB960",
"d.	c #ECA422",
"e.	c #E8A020",
"f.	c #F2D999",
"g.	c #E09D32",
"h.	c #E8A027",
"i.	c #CC8F2E",
"j.	c #FCDF75",
"k.	c #F9D773",
"l.	c #DEB444",
"m.	c #FFC936",
"n.	c #FDC941",
"o.	c #EBC55A",
"p.	c #F9C53C",
"q.	c #FEBF29",
"r.	c #D7BE85",
"s.	c #C9CCD3",
"t.	c #C4C4C4",
"u.	c #BEBEBE",
"v.	c #D0D0D0",
"w.	c #D3D3D3",
"x.	c #D1D1D1",
"y.	c #CCCCCC",
"z.	c #C3C3C3",
"A.	c #DCDCDD",
"B.	c #E0E3E9",
"C.	c #DDC295",
"D.	c #E89B1C",
"E.	c #DE921E",
"F.	c #E29925",
"G.	c #E09522",
"H.	c #E39623",
"I.	c #DDA22A",
"J.	c #E8C15C",
"K.	c #FFE26A",
"L.	c #DBA128",
"M.	c #FBBF32",
"N.	c #FBBE31",
"O.	c #FCBE30",
"P.	c #F4B32A",
"Q.	c #CFB57C",
"R.	c #C0C1C3",
"S.	c #B8B8B8",
"T.	c #C0C0C0",
"U.	c #B7B7B7",
"V.	c #E3E3E3",
"W.	c #E1E1E1",
"X.	c #D7D7D7",
"Y.	c #DFDFDF",
"Z.	c #D4D4D4",
"`.	c #C6C7C8",
" +	c #C8AD82",
".+	c #E0931E",
"++	c #DD9224",
"@+	c #E9B543",
"#+	c #E19E2A",
"$+	c #C77E1C",
"%+	c #FDCA45",
"&+	c #F7D06B",
"*+	c #D9A72D",
"=+	c #FFC02E",
"-+	c #FDCC4A",
";+	c #F7B730",
">+	c #F4B42D",
",+	c #E4B551",
"'+	c #AEB1B9",
")+	c #BDBDBD",
"!+	c #DBDBDB",
"~+	c #BABABA",
"{+	c #BBBBBB",
"]+	c #C6C6C6",
"^+	c #C1C1C1",
"/+	c #B1B1B1",
"(+	c #BFBFBF",
"_+	c #BABDC2",
":+	c #D39E52",
"<+	c #DE9325",
"[+	c #DFA02D",
"}+	c #DC9B2C",
"|+	c #DF9123",
"1+	c #D58E16",
"2+	c #DEB45B",
"3+	c #FDD050",
"4+	c #DCA028",
"5+	c #F4B634",
"6+	c #EFB837",
"7+	c #EFB93B",
"8+	c #F3AA1F",
"9+	c #BCBAB6",
"0+	c #C5C5C5",
"a+	c #B3B3B3",
"b+	c #DADADA",
"c+	c #D6D6D6",
"d+	c #B6B6B6",
"e+	c #BFBFBE",
"f+	c #DA8916",
"g+	c #DA8B20",
"h+	c #DA8D21",
"i+	c #D98C21",
"j+	c #CD841D",
"k+	c #E3A93A",
"l+	c #FFD856",
"m+	c #D69221",
"n+	c #EFAB2A",
"o+	c #E5A429",
"p+	c #E4A127",
"q+	c #DDAD58",
"r+	c #BFC0C2",
"s+	c #E4E4E4",
"t+	c #CDCDCD",
"u+	c #C9C9C9",
"v+	c #C2C2C2",
"w+	c #C1C2C3",
"x+	c #D2A05B",
"y+	c #DB8E22",
"z+	c #DB8E1F",
"A+	c #DE9527",
"B+	c #CE841D",
"C+	c #E4A63B",
"D+	c #E1B13F",
"E+	c #F0A928",
"F+	c #E9A227",
"G+	c #E8A127",
"H+	c #E69D24",
"I+	c #CCB38A",
"J+	c #C0C0BF",
"K+	c #EFEFEF",
"L+	c #9C9C9C",
"M+	c #EDEDED",
"N+	c #EBEBEB",
"O+	c #EAEAEA",
"P+	c #F0F0F0",
"Q+	c #ECECEC",
"R+	c #FCFCFC",
"S+	c #8C7556",
"T+	c #D8922A",
"U+	c #D18A24",
"V+	c #EBA123",
"W+	c #C97D17",
"X+	c #DBAF51",
"Y+	c #E89C21",
"Z+	c #F7CE63",
"`+	c #EDBB57",
" @	c #E39318",
".@	c #C3BBB0",
"+@	c #BCBCBC",
"@@	c #E2E2E2",
"#@	c #F8F8F8",
"$@	c #929292",
"%@	c #A0A0A0",
"&@	c #F5F5F5",
"*@	c #7C7C7C",
"=@	c #919191",
"-@	c #8E8E8E",
";@	c #A2A2A2",
">@	c #8F8F8F",
",@	c #909090",
"'@	c #ADAAA8",
")@	c #E89A17",
"!@	c #E8A022",
"~@	c #EBA422",
"{@	c #D08318",
"]@	c #F1CF81",
"^@	c #DCB667",
"/@	c #E39823",
"(@	c #D18822",
"_@	c #D68D26",
":@	c #E08C10",
"<@	c #C2C7CE",
"[@	c #F7F7F7",
"}@	c #E6E6E6",
"|@	c #F1F1F1",
"1@	c #FDFDFD",
"2@	c #FEFEFE",
"3@	c #E7E7E7",
"4@	c #F3F3F3",
"5@	c #F6F6F6",
"6@	c #F2F2F2",
"7@	c #FFFFFF",
"8@	c #E0E0E0",
"9@	c #BAC2D0",
"0@	c #E8990B",
"a@	c #EBA421",
"b@	c #EDA821",
"c@	c #F1AD24",
"d@	c #D78F1D",
"e@	c #D3A653",
"f@	c #EFD08B",
"g@	c #DBB977",
"h@	c #DF9322",
"i@	c #DB8F22",
"j@	c #D9840D",
"k@	c #E4E9F0",
"l@	c #989898",
"m@	c #9F9F9F",
"n@	c #A3A3A3",
"o@	c #9E9E9E",
"p@	c #9A9A9A",
"q@	c #9B9B9B",
"r@	c #AEAEAE",
"s@	c #838383",
"t@	c #DEE6F5",
"u@	c #EDA10C",
"v@	c #E8AA32",
"w@	c #E8A72D",
"x@	c #F2B227",
"y@	c #E19F23",
"z@	c #D4AB57",
"A@	c #DABC80",
"B@	c #DD8F20",
"C@	c #E19F3D",
"D@	c #EAB65A",
"E@	c #D88513",
"F@	c #D6CDC1",
"G@	c #E8E8E8",
"H@	c #A9A9A9",
"I@	c #999999",
"J@	c #8D8D8D",
"K@	c #A4A4A4",
"L@	c #959595",
"M@	c #CDC9CC",
"N@	c #FDB81E",
"O@	c #F2B32A",
"P@	c #EDB83C",
"Q@	c #F5B82B",
"R@	c #EEB028",
"S@	c #E3CA88",
"T@	c #DC8A19",
"U@	c #E8C06B",
"V@	c #ECC261",
"W@	c #D18119",
"X@	c #DEC39C",
"Y@	c #E7E6E6",
"Z@	c #B5B5B5",
"`@	c #D2D2D2",
" #	c #D9D9D9",
".#	c #CFCFCF",
"+#	c #C8C8C8",
"@#	c #CCB995",
"##	c #FEC12C",
"$#	c #FDC130",
"%#	c #FFC533",
"&#	c #FFCC37",
"*#	c #EEB72F",
"=#	c #FFE98C",
"-#	c #C47614",
";#	c #D6881D",
">#	c #D3881E",
",#	c #DF9422",
"'#	c #DFAA58",
")#	c #F1F2F5",
"!#	c #F9F9F9",
"~#	c #8D8E8E",
"{#	c #D6B05C",
"]#	c #FFC93B",
"^#	c #FFCB3D",
"/#	c #FFCD3F",
"(#	c #F1BF3F",
"_#	c #F7C84A",
":#	c #F2CB5C",
"<#	c #D39126",
"[#	c #E09521",
"}#	c #E19821",
"|#	c #E2961E",
"1#	c #E79813",
"2#	c #BDBAB4",
"3#	c #A5A5A5",
"4#	c #939393",
"5#	c #8A8A8A",
"6#	c #DDDDDD",
"7#	c #B5B3B7",
"8#	c #F9C735",
"9#	c #F8C945",
"0#	c #EEB63C",
"a#	c #E8B643",
"b#	c #EDBF48",
"c#	c #E0AC41",
"d#	c #DCA121",
"e#	c #EBA223",
"f#	c #EDAB2D",
"g#	c #E6AB33",
"h#	c #E6A021",
"i#	c #E9B34C",
"j#	c #E0E4EE",
"k#	c #C7C7C7",
"l#	c #DEDEDE",
"m#	c #E5E8EC",
"n#	c #D6B666",
"o#	c #FFD55B",
"p#	c #FFD863",
"q#	c #FFDD6D",
"r#	c #FFE87C",
"s#	c #E1A22C",
"t#	c #F8C444",
"u#	c #D5911D",
"v#	c #E9A421",
"w#	c #EEAA25",
"x#	c #F1AF25",
"y#	c #F3B123",
"z#	c #E9CB8B",
"A#	c #BBBCBE",
"B#	c #E2E3E4",
"C#	c #CEBB99",
"D#	c #FFE270",
"E#	c #EAB954",
"F#	c #FBD673",
"G#	c #FFE289",
"H#	c #EDCF7D",
"I#	c #DFA037",
"J#	c #DBB255",
"K#	c #DA9317",
"L#	c #F6B627",
"M#	c #F6B528",
"N#	c #F8BB2C",
"O#	c #F1B131",
"P#	c #FEBD22",
"Q#	c #D4B97A",
"R#	c #DDE1EA",
"S#	c #E5E7EB",
"T#	c #CCBB9B",
"U#	c #FDDD7B",
"V#	c #FFEC98",
"W#	c #E0A543",
"X#	c #DBA34E",
"Y#	c #FFF7B5",
"Z#	c #D6912C",
"`#	c #C59A52",
" $	c #E4AC42",
".$	c #D7951F",
"+$	c #FDC12E",
"@$	c #E6A22D",
"#$	c #E8B239",
"$$	c #E6A72A",
"%$	c #FFC935",
"&$	c #EFC55D",
"*$	c #DBD8D5",
"=$	c #E2E2E1",
"-$	c #D8D8D8",
";$	c #D4D0CF",
">$	c #D6C08A",
",$	c #FFEFA0",
"'$	c #FFECA4",
")$	c #FFEAA8",
"!$	c #F7E4A8",
"~$	c #F5E3A8",
"{$	c #DFB871",
"]$	c #D59A3F",
"^$	c #D9942E",
"/$	c #E5AA2C",
"($	c #F9C337",
"_$	c #E1A62F",
":$	c #FFD346",
"<$	c #FFD049",
"[$	c #FFD454",
"}$	c #FED14B",
"|$	c #E8CD81",
"1$	c #D5C7A7",
"2$	c #ABA39E",
"3$	c #AFB0B6",
"4$	c #C5C5CC",
"5$	c #A8A09B",
"6$	c #C8BCA5",
"7$	c #DCCA9B",
"8$	c #F5E095",
"9$	c #FFECAD",
"0$	c #F3D896",
"a$	c #E9BF71",
"b$	c #FFF4C1",
"c$	c #FFF2C2",
"d$	c #EDD9A3",
"e$	c #D6912B",
"f$	c #D78F29",
"g$	c #E7B43E",
"h$	c #FFD657",
"i$	c #FFD75D",
"j$	c #FFDC66",
"k$	c #ECC04F",
"l$	c #FFDF77",
"m$	c #FFE07F",
"n$	c #FFEC96",
"o$	c #FFEE93",
"p$	c #FEE18B",
"q$	c #FAE091",
"r$	c #FFF6AD",
"s$	c #FFF1B3",
"t$	c #FFEDB1",
"u$	c #E5BD73",
"v$	c #FFF7C6",
"w$	c #FFF7CA",
"x$	c #E5BF6F",
"y$	c #FAF2CA",
"z$	c #EDDDAA",
"A$	c #D9982E",
"B$	c #E4A635",
"C$	c #E0B246",
"D$	c #FFE381",
"E$	c #F7D46D",
"F$	c #F6D882",
"G$	c #FFE595",
"H$	c #FEDF89",
"I$	c #E6B048",
"J$	c #F3D691",
"K$	c #FFEDB2",
"L$	c #F2C979",
"M$	c #F7EBBD",
"N$	c #FFF2C1",
"O$	c #E4B863",
"P$	c #F6DC93",
"Q$	c #F0E4BF",
"R$	c #FEF8CE",
"S$	c #FFFFDE",
"T$	c #E1C581",
"U$	c #DCA439",
"V$	c #EDBE4E",
"W$	c #EEBA36",
"X$	c #EACF83",
"Y$	c #FFF3B2",
"Z$	c #FFECAE",
"`$	c #F5D48A",
" %	c #D9A453",
".%	c #FAEEC0",
"+%	c #FFF2C3",
"@%	c #EDC26C",
"#%	c #EBDAAC",
"$%	c #FEF8CD",
"%%	c #FAF4CA",
"&%	c #E4CA88",
"*%	c #FFFFE2",
"=%	c #ECE1B1",
"-%	c #DFAF46",
";%	c #DBB153",
">%	c #CCAA5A",
",%	c #F4C246",
"'%	c #E7AE37",
")%	c #EACA7E",
"!%	c #F1E8BD",
"~%	c #FFFFE4",
"{%	c #FFFBD3",
"]%	c #FBF5CC",
"^%	c #FFFFDA",
"/%	c #FFFFE0",
"(%	c #F2EFC7",
"_%	c #E8D18F",
":%	c #DEB14A",
"<%	c #E0B54D",
"[%	c #C3A25F",
"}%	c #D79E3D",
"|%	c #DF9D30",
"1%	c #D78F26",
"2%	c #D89739",
"3%	c #D8A14B",
"4%	c #D9A54D",
"5%	c #DCA544",
"6%	c #DBA439",
"7%	c #DDAA41",
"8%	c #D3AA4D",
"                            . + @ #                             ",
"                    $ % & * = - ; > , ' ) !                     ",
"                ~ { ] ^ / ( _ : < [ } | 1 2 3 4                 ",
"              5 6 7 8 9 0 a b c d e f g h i j k l               ",
"            m n o p q r s t u v w x y z A B C D E F             ",
"          G H I J K L M N O P Q R S T U V W X Y Z `  .          ",
"        ..+.@.#.$.%.&.*.=.-.;.>.,.'.).!.~.{.].^./.(._.:.        ",
"      <.[.}.|.1.z 2.3.4.5.6.7.8.9.6.0.a.b.c.d.e.f.g.h.i.j.      ",
"    k.l.m.n.o.p.q.r.s.t.7.u.v.w.x.y.w.z.A.B.C.D.E.F.G.H.I.J.    ",
"    K.L.M.N.O.P.Q.R.S.T.T.U.V.W.t.X.Y.Z.X.W.`. +.+++@+#+$+%+    ",
"  &+*+=+-+;+>+,+'+)+!+~+{+]+Y.W.w.]+b.^+T./+(+_+:+<+[+}+|+1+2+  ",
"  3+4+5+6+7+8+9+0+a+X.{+X.w.b+c+d+9.U.(+T.T.(+(+e+f+g+h+i+j+k+  ",
"  l+m+n+o+p+q+r+T.^+^+s+W.W.t+u+S.v+z.^+^+^+^+^+w+x+y+z+A+B+C+  ",
"  D+E+F+G+H+I+J+b.K+L+Y.K+M+N+O+P+P+6.Q+P+P+M+N+R+S+.+T+U+V+W+  ",
"  X+Y+Z+`+ @.@+@@@#@$@@@7.%@!+&@*@=@-@;@$@>@v.Q+,@'@)@!@!@~@{@  ",
"]@^@/@(@_@:@<@[@}@|@M+R+1@2@3@4@}@5@#@4@6@s+3@7@8@9@0@a@b@c@d@e@",
"f@g@h@i@i@j@k@l@K+X.m@n@n@o@K+Z.p@o@q@l@r@Q+Q+=@s@t@u@v@w@x@y@z@",
"  A@B@C@D@E@F@~+G@m@l@%@H@{+G@q@I@$@J@z.M+%@K@L@=@M@N@O@P@Q@R@  ",
"  S@T@U@V@W@X@Y@O+Z@`@u+u+3@Q+%@(+)+ #G@.#+#V..#d+@###$#%#&#*#  ",
"  =#-#;#>#,#'#)#5@#@!#7@q@4@7@I@)+u.1@[@[@5@5@7@~#{#]#^#/#(#_#  ",
"  :#<#[#}#|#1#2#3#4#5#5#v.)+;@6#t.~+o@n@3#3#3#K@7#8#9#0#a#b#c#  ",
"    d#e#f#g#h#i#j#k#S.l#8@8@8@8@ #b.8@8@8@8@8@m#n#o#p#q#r#s#    ",
"    t#u#v#w#x#y#z#A#!+8@8@8@8@8@8@8@8@8@6#8@B#C#D#E#F#G#H#I#    ",
"    J#K#L#M#N#O#P#Q#R#8@6#8@@@@@@@W.8@8@8@S#T#U#V#W#X#Y#Z#`#    ",
"       $.$+$@$#$$$%$&$*$B#=$9.S.~++@-$B#;$>$,$'$)$!$~${$]$      ",
"        ^$/$($_$:$<$[$}$|$1$2$3$4$5$6$7$8$9$0$a$b$c$d$e$        ",
"          f$g$h$i$j$k$l$m$n$o$p$q$r$s$t$u$v$w$x$y$z$A$          ",
"            B$C$D$E$F$G$H$I$J$K$L$M$N$O$P$Q$R$S$T$U$            ",
"              V$W$X$Y$Z$`$ %.%+%@%#%$%%%&%*%=%-%;%              ",
"                >%,%'%)%!%~%{%{%]%^%/%(%_%:%<%[%                ",
"                      }%|%1%2%3%4%5%6%7%8%                      ",
"                                                                "};
