/* XPM */
static char * litecoinz16_xpm[] = {
"16 16 174 2",
"  	c None",
". 	c #EFDC93",
"+ 	c #E5CD71",
"@ 	c #E5C965",
"# 	c #EFCA60",
"$ 	c #E9D57E",
"% 	c #EAD55E",
"& 	c #F6D84B",
"* 	c #FCE25E",
"= 	c #FFDC4B",
"- 	c #F6CD44",
"; 	c #EDBB2F",
"> 	c #EABB43",
", 	c #E6C958",
"' 	c #FEE263",
") 	c #FDD03D",
"! 	c #FAD049",
"~ 	c #FBC52D",
"{ 	c #FFBE1E",
"] 	c #F8BE30",
"^ 	c #F8C13C",
"/ 	c #FAC03A",
"( 	c #E5B34D",
"_ 	c #E6C04B",
": 	c #FFD13E",
"< 	c #F6C847",
"[ 	c #F9D062",
"} 	c #D0C4A7",
"| 	c #C0C5D2",
"1 	c #C4C9D7",
"2 	c #C4B79C",
"3 	c #E9B95D",
"4 	c #ECA21A",
"5 	c #EFBF60",
"6 	c #DFA743",
"7 	c #E9C151",
"8 	c #FFC735",
"9 	c #F5BF3B",
"0 	c #D9BD7C",
"a 	c #BEC1C8",
"b 	c #B6B5B5",
"c 	c #DFDFDF",
"d 	c #CECECE",
"e 	c #D5D5D5",
"f 	c #E1E4EB",
"g 	c #D3B480",
"h 	c #DF8F17",
"i 	c #E6A22E",
"j 	c #E1A937",
"k 	c #E9AC29",
"l 	c #F5C03F",
"m 	c #E3B24F",
"n 	c #B4B7BE",
"o 	c #CBCBCB",
"p 	c #CACACA",
"q 	c #BEBEBE",
"r 	c #C2C2C2",
"s 	c #B9B9B9",
"t 	c #BDC0C5",
"u 	c #D39C4E",
"v 	c #DB9527",
"w 	c #D5881A",
"x 	c #F0C651",
"y 	c #E69E22",
"z 	c #E69E20",
"A 	c #C8B99E",
"B 	c #D4D4D4",
"C 	c #C6C6C6",
"D 	c #EEEEEE",
"E 	c #D9D9D9",
"F 	c #E0E0E0",
"G 	c #C8C8C8",
"H 	c #D6D6D6",
"I 	c #C7B8A4",
"J 	c #DE901F",
"K 	c #DA9123",
"L 	c #D19233",
"M 	c #E1BD6A",
"N 	c #E6A231",
"O 	c #E49720",
"P 	c #CDD2DA",
"Q 	c #F1F1F1",
"R 	c #DBDBDB",
"S 	c #D0D0D0",
"T 	c #B4B4B4",
"U 	c #B7B7B7",
"V 	c #F2F2F2",
"W 	c #AEB5C1",
"X 	c #ED9C0D",
"Y 	c #EFA922",
"Z 	c #D08F2C",
"` 	c #DFC488",
" .	c #DE9020",
"..	c #DD8E1B",
"+.	c #BBC0C7",
"@.	c #949494",
"#.	c #9D9D9D",
"$.	c #D7D7D7",
"%.	c #8F8F8F",
"&.	c #959595",
"*.	c #A7A7A7",
"=.	c #ABB1C1",
"-.	c #F3AA14",
";.	c #EEB230",
">.	c #E0A836",
",.	c #F2DF94",
"'.	c #D58C27",
").	c #DB9529",
"!.	c #E9D7BE",
"~.	c #E9E9E9",
"{.	c #F4F4F4",
"].	c #BFBFBF",
"^.	c #FBFBFB",
"/.	c #E4E4E4",
"(.	c #F9F9F9",
"_.	c #B0A48C",
":.	c #FFC831",
"<.	c #FECA3A",
"[.	c #EABA43",
"}.	c #DE9920",
"|.	c #E6A32A",
"1.	c #DCA544",
"2.	c #B2B6BF",
"3.	c #9E9E9E",
"4.	c #CFCFCF",
"5.	c #BABABA",
"6.	c #BEC1C6",
"7.	c #E3C267",
"8.	c #F8CC53",
"9.	c #EEC04C",
"0.	c #E0A530",
"a.	c #F3B025",
"b.	c #F5B425",
"c.	c #DBBD75",
"d.	c #E0E4EC",
"e.	c #E2E4E8",
"f.	c #D9C69E",
"g.	c #F3CB63",
"h.	c #F8DA87",
"i.	c #D9A246",
"j.	c #E4A428",
"k.	c #E8AC32",
"l.	c #FBC537",
"m.	c #F3CF6D",
"n.	c #E1D8C0",
"o.	c #A6A5AC",
"p.	c #B1B0B6",
"q.	c #D6CFC0",
"r.	c #E7D5A2",
"s.	c #F8DD90",
"t.	c #FFF2BC",
"u.	c #E6C17A",
"v.	c #EAB842",
"w.	c #FFDF72",
"x.	c #F6D576",
"y.	c #FBD876",
"z.	c #FFEA98",
"A.	c #FDE69B",
"B.	c #FBE3A0",
"C.	c #F1DBA1",
"D.	c #FBF1C2",
"E.	c #E9CE8C",
"F.	c #E7BD52",
"G.	c #F5D887",
"H.	c #EFDBA8",
"I.	c #FFFFDB",
"J.	c #F5E6B3",
"K.	c #FFFFE3",
"L.	c #EAD28F",
"M.	c #DBB760",
"N.	c #D08719",
"O.	c #CD943E",
"P.	c #CF9C44",
"Q.	c #D0972B",
"            . + @ #             ",
"        $ % & * = - ; >         ",
"      , ' ) ! ~ { ] ^ / (       ",
"    _ : < [ } | 1 2 3 4 5 6     ",
"  7 8 9 0 a b c d e f g h i j   ",
"  k l m n o p c q r s t u v w   ",
"x y z A B C D E F G c H I J K L ",
"M N O P Q R S Q T p U V W X Y Z ",
"`  ...+.E @.#.$.%.&.p *.=.-.;.>.",
",.'.).!.~.{.d G ].^./.(._.:.<.[.",
"  }.|.1.2.3.$.4.p 5.q 6.7.8.9.  ",
"  0.a.b.c.d.c /./.F e.f.g.h.i.  ",
"    j.k.l.m.n.o.p.q.r.s.t.u.    ",
"      v.w.x.y.z.A.B.C.D.E.      ",
"        F.G.H.I.J.K.L.M.        ",
"            N.O.P.Q.            "};
