/* XPM */
static char *bitcoin64[] = {
/* columns rows colors chars-per-pixel */
"64 64 2 1 ",
"  c #FFCA39",
". c None",
/* pixels */
"..........................            ..........................",
"......................                   .......................",
"...................                         ....................",
".................                             ..................",
"................                                ................",
"..............                                    ..............",
".............             ...........              .............",
"...........            ..................           ............",
"..........           ......................          ...........",
".........          ..........................         ..........",
"........         .............................         .........",
".......         ................................        ........",
".......        ..................................        .......",
"......                                           .        ......",
".....                                            ..       ......",
".....                                           ....       .....",
"....                                            .....       ....",
"...                                             .....       ....",
"...       .............................        .......       ...",
"...      ...............................       .......       ...",
"..       ...............................      .........      ...",
"..      ...............................       .........       ..",
".       ...............................      ...........      ..",
".      ...............................       ...........      ..",
".      ...............................      .............      .",
".      ..................       .....       .............      .",
"      ...................      ......       .............      .",
"      ..................       ......  ... ..............      .",
"      ..................       ..........  ..............      .",
"      .................       ..........  ...............      .",
"      .................  ...........      ................      ",
"      ................. ................ .................      ",
"      ................ ....  ..........  .................      ",
"      ................    ...........    .................      ",
"      ...............  ..........       .................      .",
"      ............... ...........       .................      .",
"      ..............  .    .....       ..................      .",
"      ..............       .....       ..................      .",
".      ............       ......      ...................      .",
".      ............       ..............................       .",
".      ............      ...............................      ..",
".       ..........       ...............................      ..",
"..      ..........      ...............................       ..",
"..       ........       ...............................      ...",
"...      ........      ...............................       ...",
"...       ......        .                           .        ...",
"...       ......                                            ....",
"....       ....                                             ....",
".....       ...                                            .....",
".....        ..                                           ......",
"......        .                                           ......",
".......        ..................................        .......",
".......         ................................        ........",
"........         .............................         .........",
".........          ..........................         ..........",
"..........           ......................          ...........",
"...........            ..................           ............",
".............             ...........              .............",
"..............                                    ..............",
"................                                ................",
".................                             ..................",
"...................                         ....................",
"......................                   .......................",
"..........................            .........................."
};
