/* XPM */
static char *bitcoin16[] = {
/* columns rows colors chars-per-pixel */
"16 16 2 1 ",
"  c #FFCA39",
". c None",
/* pixels */
".....      .....",
"...          ...",
"..   ......   ..",
".             ..",
".           .  .",
"  ........ ...  ",
"  ....  .  ...  ",
"  .... .......  ",
"  ....... ....  ",
"  ... ..  ....  ",
"  ..  ........  ",
". ..           .",
".             ..",
"..   ......   ..",
"...          ...",
".....      ....."
};
